<?xml version="1.0" standalone="no"?>
<!DOCTYPE svg PUBLIC "-//W3C//DTD SVG 20010904//EN"
 "http://www.w3.org/TR/2001/REC-SVG-20010904/DTD/svg10.dtd">
<svg version="1.0" xmlns="http://www.w3.org/2000/svg"
 width="161.000000pt" height="61.000000pt" viewBox="0 0 161.000000 61.000000"
 preserveAspectRatio="xMidYMid meet">
<metadata>
Created by potrace 1.10, written by Peter Selinger 2001-2011
</metadata>
<g transform="translate(0.000000,61.000000) scale(0.100000,-0.100000)"
fill="#000000" stroke="none">
<path d="M1317 489 c-3 -11 0 -19 8 -19 11 0 45 -67 45 -88 -1 -12 -40 42 -40
56 0 15 -8 15 -23 -1 -21 -22 -20 -40 2 -34 32 8 71 -44 71 -96 0 -37 -1 -39
-14 -22 -20 28 -57 8 -87 -47 -28 -50 -66 -67 -55 -24 4 15 21 46 39 70 29 37
36 42 57 34 27 -10 45 8 27 28 -10 10 -13 9 -15 -1 -6 -25 -29 -5 -24 21 3 17
0 24 -11 24 -20 0 -40 -29 -68 -99 -26 -64 -56 -111 -71 -111 -12 0 -3 41 18
84 17 34 17 36 4 36 -11 0 -44 -57 -46 -80 -4 -45 -16 -59 -56 -65 -76 -13
-115 -85 -46 -85 28 0 69 31 94 70 5 8 23 25 40 37 29 20 32 20 47 5 15 -14
18 -14 36 2 19 17 21 17 36 2 19 -19 20 -19 47 -5 23 12 57 83 58 118 0 28 27
62 44 55 13 -5 51 54 41 64 -4 4 -13 -2 -21 -12 -8 -11 -14 -14 -14 -7 0 7 -4
9 -10 6 -5 -3 -10 -14 -10 -25 0 -10 -7 -20 -15 -23 -10 -5 -16 4 -21 29 -6
35 7 64 31 64 7 0 13 11 13 25 0 14 -4 25 -9 25 -5 0 -9 -4 -9 -10 0 -5 -7 -7
-15 -4 -10 4 -13 -1 -12 -22 1 -15 -3 -29 -9 -31 -15 -5 -35 42 -23 54 7 7 4
12 -9 15 -14 4 -22 0 -25 -13z m-41 -174 c-15 -25 -29 -45 -31 -45 -6 0 25 73
37 88 23 28 19 0 -6 -43z m70 -100 c-16 -24 -36 -32 -49 -19 -9 9 4 34 18 34
7 0 19 8 26 18 13 15 12 16 -4 3 -25 -20 -34 -5 -11 20 l18 21 9 -27 c6 -18 4
-32 -7 -50z m-268 -100 c-41 -38 -72 -46 -66 -18 2 10 19 26 38 35 57 28 68
21 28 -17z"/>
<path d="M878 373 c-9 -10 -34 -55 -57 -100 -39 -80 -53 -95 -78 -85 -18 6
-16 29 4 63 22 37 48 48 40 18 -6 -21 -5 -21 11 -6 12 12 13 20 5 28 -20 20
-48 4 -82 -49 -21 -32 -41 -52 -52 -52 -29 0 -24 37 6 44 31 8 52 43 36 59
-16 16 -39 0 -76 -53 -17 -24 -36 -45 -43 -48 -19 -6 -14 33 8 61 11 14 20 29
20 34 0 4 -5 1 -11 -7 -9 -13 -10 -13 -6 0 2 8 9 16 15 16 26 3 29 4 30 17 1
6 4 24 8 40 9 40 -19 35 -46 -8 -12 -19 -26 -35 -31 -35 -4 0 -6 -6 -3 -14 3
-8 -4 -35 -15 -60 -14 -33 -26 -46 -40 -46 -14 0 -21 6 -21 20 0 11 6 20 13
20 19 0 60 47 52 59 -11 19 -32 12 -59 -20 -47 -55 -25 -120 29 -85 19 13 24
13 37 -1 14 -14 18 -13 34 4 19 18 19 18 35 -1 15 -19 18 -19 41 -4 22 15 27
15 40 2 21 -22 76 -6 92 26 8 14 24 45 36 70 13 25 32 60 42 78 21 34 11 44
-14 15z m-318 -91 c0 -14 -39 -46 -47 -39 -3 4 2 16 12 27 19 21 35 26 35 12z
m150 0 c0 -12 -39 -46 -45 -41 -6 7 24 49 36 49 5 0 9 -4 9 -8z"/>
<path d="M316 355 c-9 -13 -16 -29 -16 -35 0 -5 -8 -10 -17 -11 -10 0 -13 -3
-6 -5 8 -4 8 -16 -4 -49 -17 -50 -34 -68 -60 -63 -26 5 -18 47 14 78 25 25 25
25 20 3 -3 -13 -2 -23 3 -23 13 0 22 32 11 43 -18 18 -52 -5 -82 -54 -17 -27
-35 -49 -40 -49 -12 0 -11 6 7 41 19 38 8 53 -15 20 -31 -47 -49 -66 -56 -59
-23 22 49 109 76 92 8 -4 9 -3 5 4 -12 20 -45 14 -71 -12 -30 -30 -41 -71 -25
-91 12 -14 15 -14 30 0 15 14 18 14 30 0 12 -14 15 -14 31 1 17 15 19 15 34 0
20 -20 34 -20 55 -1 15 14 19 14 30 0 9 -11 17 -12 32 -4 14 7 23 7 33 -1 11
-9 18 -7 34 9 15 15 21 17 21 7 0 -26 21 -29 45 -6 25 24 60 110 45 110 -12 0
-34 -40 -26 -47 8 -8 -23 -63 -35 -63 -7 0 -9 10 -5 28 19 74 19 82 2 76 -9
-3 -16 -15 -16 -26 0 -27 -31 -78 -48 -78 -15 0 -10 25 15 73 12 23 12 27 -1
27 -7 0 -16 -11 -20 -23 -7 -28 -43 -77 -57 -77 -17 0 -9 37 13 66 13 15 17
24 9 20 -9 -6 -12 -4 -9 5 3 8 10 15 16 15 26 3 29 4 30 17 1 6 4 24 8 40 8
35 -17 37 -40 2z"/>
<path d="M1049 345 c-12 -19 -25 -35 -30 -35 -4 0 -6 -6 -3 -14 6 -16 -30
-106 -43 -106 -4 0 -9 25 -10 55 -1 42 2 55 14 55 8 0 12 4 8 10 -11 18 -32
-2 -61 -56 -16 -31 -33 -58 -37 -61 -20 -12 -19 11 1 52 12 25 18 45 14 45
-14 0 -37 -19 -37 -32 -1 -7 -5 -26 -9 -42 -9 -30 9 -53 29 -36 6 5 16 5 23 1
15 -9 61 -3 79 11 7 5 13 5 17 0 3 -5 28 -10 56 -10 41 0 53 4 62 22 11 21 11
21 -11 2 -33 -29 -35 -13 -7 43 28 54 17 72 -12 20 -24 -44 -52 -79 -63 -79
-20 0 -7 47 24 81 32 36 35 43 45 87 7 36 -26 27 -49 -13z m-112 -152 c-11
-12 -16 -12 -22 -2 -6 8 -4 10 5 4 10 -6 12 -4 7 8 -4 10 -1 29 6 44 l12 28 3
-34 c2 -20 -2 -40 -11 -48z"/>
</g>
</svg>
