<?xml version="1.0" standalone="no"?>
<!DOCTYPE svg PUBLIC "-//W3C//DTD SVG 20010904//EN"
 "http://www.w3.org/TR/2001/REC-SVG-20010904/DTD/svg10.dtd">
<svg version="1.0" xmlns="http://www.w3.org/2000/svg"
 width="145.000000pt" height="135.000000pt" viewBox="0 0 145.000000 135.000000"
 preserveAspectRatio="xMidYMid meet">

<g transform="translate(0.000000,135.000000) scale(0.100000,-0.100000)"
fill="#000000" stroke="none">
<path d="M570 1294 c-305 -80 -504 -367 -470 -676 17 -147 72 -260 180 -369
157 -158 372 -219 590 -167 73 17 201 83 258 133 71 63 138 161 175 253 38 98
48 256 23 364 -52 222 -235 405 -461 463 -74 19 -222 18 -295 -1z m603 -373
c24 -9 27 -16 27 -56 0 -38 -3 -45 -20 -45 -15 0 -20 7 -20 28 0 42 -21 64
-62 65 -43 1 -68 -17 -68 -48 0 -42 11 -55 81 -96 101 -59 125 -119 71 -180
-24 -27 -37 -33 -84 -37 -31 -2 -72 1 -92 8 -35 11 -36 13 -36 61 0 62 22 67
36 7 8 -38 13 -43 47 -51 48 -12 84 3 93 38 12 47 -3 73 -59 105 -83 47 -109
79 -105 131 3 37 8 47 38 67 28 19 44 23 80 19 25 -3 57 -10 73 -16z m-829
-68 c14 -38 43 -115 65 -173 25 -66 45 -106 55 -108 9 -2 16 -8 16 -13 0 -5
-27 -9 -60 -9 -33 0 -60 4 -60 10 0 6 7 10 15 10 8 0 15 2 15 5 0 3 -21 64
-47 135 l-46 130 -49 -133 c-26 -72 -48 -133 -48 -134 0 -2 9 -3 20 -3 11 0
20 -4 20 -10 0 -5 -22 -10 -50 -10 -27 0 -50 5 -50 10 0 6 6 10 14 10 14 0 30
37 120 278 15 39 31 72 36 72 5 0 20 -30 34 -67z m466 -40 c0 -7 -11 -13 -24
-13 -13 0 -27 -7 -30 -16 -3 -9 -6 -101 -6 -205 l0 -189 65 0 c45 0 65 4 65
13 0 32 22 87 35 87 17 0 18 -15 9 -84 l-7 -46 -198 0 -199 0 0 70 c0 79 14
91 30 28 6 -24 13 -49 15 -55 3 -9 25 -13 65 -13 l60 0 0 205 0 205 -30 0
c-19 0 -30 5 -30 14 0 11 20 13 90 13 66 -1 90 -5 90 -14z"/>
</g>
</svg>
